<svg xmlns="http://www.w3.org/2000/svg" width="17" height="20" viewBox="0 0 17 20"><g><g><path fill="#fff" d="M16.986 14.598c-.015.07-.405 1.44-1.377 2.831-.811 1.225-1.662 2.422-3.012 2.444-1.311.03-1.753-.78-3.257-.78-1.518 0-1.988.758-3.246.81-1.286.048-2.269-1.307-3.11-2.52-1.68-2.479-2.989-6.984-1.235-10.05.85-1.503 2.4-2.471 4.057-2.497 1.288-.027 2.483.877 3.274.877.776 0 2.253-1.081 3.776-.92.637.02 2.45.255 3.62 1.976-.094.057-2.16 1.282-2.138 3.801.026 3.02 2.617 4.017 2.648 4.028zM8.925 4.565c-.144-1.135.413-2.342 1.038-3.078.705-.835 1.93-1.475 2.91-1.519.128 1.179-.335 2.341-1.012 3.195-.706.841-1.836 1.485-2.936 1.402z"/></g></g></svg>